<svg id="Layer_1" enable-background="new 0 0 512 512" height="512" viewBox="0 0 512 512" width="512" xmlns="http://www.w3.org/2000/svg"><g><path d="m320.267 383.467h-112.467c-3.407 0-6.712-1.16-9.372-3.289l-30.162-24.13c-4.737-3.789-11.333-4.54-16.798-1.913-5.468 2.627-9.001 8.246-9.001 14.315 0 8.284-6.716 15.016-15 15.016h-112.467c-8.284 0-15-6.716-15-15v-83.096c0-33.307 12.972-64.622 36.526-88.177 3.901-3.902 9.632-5.346 14.915-3.762 0 0 21.435 6.428 48.654 14.598 53.567 16.067 110.075-14.9 125.406-68.599 1.57-5.497 5.58-8.061 6.545-8.658 4.423-2.733 9.944-2.982 14.594-.657l128.533 64.266c34.528 17.261 75.16 13.596 106.038-9.564 4.175-3.124 6.776-5.076 6.782-5.081 4.544-3.412 10.626-3.965 15.711-1.423 5.083 2.54 8.295 7.735 8.295 13.418.001 105.725-86.01 191.736-191.732 191.736z" fill="#ffc362"/><path d="m320.267 383.467c105.722 0 191.733-86.011 191.733-191.733 0-5.683-3.212-10.878-8.295-13.418-5.084-2.542-11.167-1.989-15.711 1.423-.006.004-2.607 1.957-6.782 5.081-30.878 23.16-71.509 26.825-106.038 9.564l-128.533-64.266c-4.65-2.326-10.171-2.077-14.594.657-.966.597-4.976 3.161-6.545 8.658v244.036h94.765z" fill="#ff965a"/><path d="m349.75 278.775 39.336-78.672c-4.718-1.55-9.369-3.449-13.912-5.72l-77.682-38.841-38.841 77.683c-3.705 7.41-.701 16.419 6.708 20.125l64.267 32.134c7.433 3.716 16.431.677 20.124-6.709z" fill="#ff695a"/></g></svg>